<svg width="96" height="96" viewBox="0 0 96 96" fill="none" xmlns="http://www.w3.org/2000/svg">
  <title>Clinica VerdeVida</title>
  <defs>
    <linearGradient id="g" x1="20" y1="16" x2="80" y2="84" gradientUnits="userSpaceOnUse">
      <stop stop-color="#9BE7C4"/>
      <stop offset="1" stop-color="#0F3D2E"/>
    </linearGradient>
  </defs>
  <rect x="10" y="10" width="76" height="76" rx="22" fill="url(#g)"/>
  <path d="M49 26c5 0 9 4 9 9s-4 9-9 9-9-4-9-9 4-9 9-9Z" fill="#FBFBF8" fill-opacity="0.96"/>
  <path d="M28 44c3.6 0 6.5 3 6.5 6.6 0 3.6-2.9 6.5-6.5 6.5-3.7 0-6.6-2.9-6.6-6.5S24.3 44 28 44Z" fill="#FBFBF8" fill-opacity="0.92"/>
  <path d="M70 44c3.7 0 6.6 3 6.6 6.6 0 3.6-2.9 6.5-6.6 6.5-3.6 0-6.5-2.9-6.5-6.5S66.4 44 70 44Z" fill="#FBFBF8" fill-opacity="0.92"/>
  <path d="M39 49c3.2 0 5.8 2.7 5.8 6 0 3.2-2.6 5.9-5.8 5.9s-5.8-2.7-5.8-5.9c0-3.3 2.6-6 5.8-6Z" fill="#FBFBF8" fill-opacity="0.9"/>
  <path d="M59 49c3.2 0 5.8 2.7 5.8 6 0 3.2-2.6 5.9-5.8 5.9s-5.8-2.7-5.8-5.9c0-3.3 2.6-6 5.8-6Z" fill="#FBFBF8" fill-opacity="0.9"/>
  <path d="M48 52c7.2 0 13 5.8 13 13.1 0 1.7-.3 3.3-.9 4.8-2.8 2-6.7 3.5-12.1 3.5s-9.3-1.5-12.1-3.5c-.6-1.5-.9-3.1-.9-4.8C35 57.8 40.8 52 48 52Z" fill="#06100C" fill-opacity="0.16"/>
</svg>
